<?xml version="1.0" standalone="no"?>
<!DOCTYPE svg PUBLIC "-//W3C//DTD SVG 20010904//EN"
 "http://www.w3.org/TR/2001/REC-SVG-20010904/DTD/svg10.dtd">
<svg version="1.0" xmlns="http://www.w3.org/2000/svg"
 width="320.000000pt" height="320.000000pt" viewBox="0 0 320.000000 320.000000"
 preserveAspectRatio="xMidYMid meet">
<metadata>
Created by potrace 1.11, written by Peter Selinger 2001-2013
</metadata>
<g transform="translate(0.000000,320.000000) scale(0.100000,-0.100000)"
fill="#000000" stroke="none">
<path d="M98 3163 c-14 -9 -31 -27 -37 -40 -8 -17 -11 -476 -11 -1529 0 -1636
-3 -1546 55 -1572 20 -9 379 -12 1501 -12 1604 0 1516 -3 1542 55 9 20 12 386
12 1531 0 1387 -1 1508 -17 1534 -9 16 -27 33 -40 39 -17 8 -460 11 -1501 11
-1358 -1 -1479 -2 -1504 -17z"/>
</g>
</svg>
